<svg width="389" height="344" viewBox="0 0 389 344" fill="none" xmlns="http://www.w3.org/2000/svg">
<path d="M194.659 343.595C301.741 343.595 388.549 338.527 388.549 332.275C388.549 326.023 301.741 320.955 194.659 320.955C87.5764 320.955 0.768921 326.023 0.768921 332.275C0.768921 338.527 87.5764 343.595 194.659 343.595Z" fill="#F0F6FF"/>
<path d="M180.469 319.835H63.5388V333.175H180.469V319.835Z" fill="#0053CC"/>
<g opacity="0.2">
<path opacity="0.2" d="M69.5089 321.735H66.5789V331.285H69.5089V321.735Z" fill="#0F264C"/>
<path opacity="0.2" d="M74.6489 321.735H71.7189V331.285H74.6489V321.735Z" fill="#0F264C"/>
<path opacity="0.2" d="M79.7989 321.735H76.8689V331.285H79.7989V321.735Z" fill="#0F264C"/>
<path opacity="0.2" d="M84.9389 321.735H82.0089V331.285H84.9389V321.735Z" fill="#0F264C"/>
<path opacity="0.2" d="M90.0788 321.735H87.1488V331.285H90.0788V321.735Z" fill="#0F264C"/>
<path opacity="0.2" d="M95.2188 321.735H92.2888V331.285H95.2188V321.735Z" fill="#0F264C"/>
<path opacity="0.2" d="M100.359 321.735H97.4288V331.285H100.359V321.735Z" fill="#0F264C"/>
<path opacity="0.2" d="M105.509 321.735H102.579V331.285H105.509V321.735Z" fill="#0F264C"/>
<path opacity="0.2" d="M110.649 321.735H107.719V331.285H110.649V321.735Z" fill="#0F264C"/>
<path opacity="0.2" d="M115.789 321.735H112.859V331.285H115.789V321.735Z" fill="#0F264C"/>
<path opacity="0.2" d="M120.929 321.735H117.999V331.285H120.929V321.735Z" fill="#0F264C"/>
<path opacity="0.2" d="M126.079 321.735H123.149V331.285H126.079V321.735Z" fill="#0F264C"/>
<path opacity="0.2" d="M131.219 321.735H128.289V331.285H131.219V321.735Z" fill="#0F264C"/>
<path opacity="0.2" d="M136.359 321.735H133.429V331.285H136.359V321.735Z" fill="#0F264C"/>
<path opacity="0.2" d="M141.499 321.735H138.569V331.285H141.499V321.735Z" fill="#0F264C"/>
<path opacity="0.2" d="M146.639 321.735H143.709V331.285H146.639V321.735Z" fill="#0F264C"/>
<path opacity="0.2" d="M151.789 321.735H148.859V331.285H151.789V321.735Z" fill="#0F264C"/>
<path opacity="0.2" d="M156.929 321.735H153.999V331.285H156.929V321.735Z" fill="#0F264C"/>
<path opacity="0.2" d="M162.069 321.735H159.139V331.285H162.069V321.735Z" fill="#0F264C"/>
<path opacity="0.2" d="M167.209 321.735H164.279V331.285H167.209V321.735Z" fill="#0F264C"/>
<path opacity="0.2" d="M172.359 321.735H169.429V331.285H172.359V321.735Z" fill="#0F264C"/>
<path opacity="0.2" d="M177.499 321.735H174.569V331.285H177.499V321.735Z" fill="#0F264C"/>
</g>
<path d="M180.476 333.176H198.716V319.836H180.476V333.176Z" fill="#0050AF"/>
<path d="M180.469 84.085H57.4489V319.835H180.469V84.085Z" fill="#4EA4F9"/>
<path d="M196.729 82.065H65.5188V84.085H196.729V82.065Z" fill="#0D6AB7"/>
<path d="M53.5789 193.935H52.5789V203.865H53.5789V193.935Z" fill="#197BDD"/>
<path d="M53.5789 207.205H52.5789V233.035H53.5789V207.205Z" fill="#197BDD"/>
<path d="M180.47 319.83H204.8L204.8 84.0804H180.47L180.47 319.83Z" fill="#197BDD"/>
<path opacity="0.6" d="M174.339 169.845H63.5888C61.7788 169.845 60.3188 168.385 60.3188 166.575V149.715C60.3188 147.905 61.7788 146.445 63.5888 146.445H174.349C176.159 146.445 177.619 147.905 177.619 149.715V166.575C177.609 168.375 176.149 169.845 174.339 169.845Z" fill="#0D6AB7"/>
<path d="M167.739 154.995L163.009 145.225V171.055H167.919H169.259H177.609V158.135H172.759C170.619 158.145 168.669 156.925 167.739 154.995Z" fill="#197BDD"/>
<path d="M177.609 86.905H60.3188V112.735H177.609V86.905Z" fill="#2B97EF"/>
<path d="M177.609 291.035H60.3188V316.865H177.609V291.035Z" fill="#2B97EF"/>
<path d="M177.609 261.875H60.3188V287.705H177.609V261.875Z" fill="#2B97EF"/>
<path d="M177.609 232.715H60.3188V258.545H177.609V232.715Z" fill="#2B97EF"/>
<path d="M177.609 203.545H60.3188V229.375H177.609V203.545Z" fill="#2B97EF"/>
<path d="M177.609 174.385H60.3188V200.215H177.609V174.385Z" fill="#2B97EF"/>
<path d="M163.009 145.225H45.7189V171.055H163.009V145.225Z" fill="#2B97EF"/>
<path d="M177.609 116.065H60.3188V141.895H177.609V116.065Z" fill="#2B97EF"/>
<path d="M170.309 109.045H125.709C123.639 109.045 121.939 107.345 121.939 105.275V94.365C121.939 92.295 123.639 90.595 125.709 90.595H170.309C172.379 90.595 174.079 92.295 174.079 94.365V105.285C174.079 107.355 172.389 109.045 170.309 109.045Z" fill="#197BDD"/>
<path opacity="0.2" d="M149.559 100.585V99.065C149.559 98.185 150.279 97.465 151.159 97.465H165.609C166.489 97.465 167.209 98.185 167.209 99.065V100.585C167.209 101.465 166.489 102.185 165.609 102.185H151.159C150.279 102.175 149.559 101.465 149.559 100.585Z" fill="white"/>
<path d="M170.309 138.205H125.709C123.639 138.205 121.939 136.505 121.939 134.435V123.515C121.939 121.445 123.639 119.745 125.709 119.745H170.309C172.379 119.745 174.079 121.445 174.079 123.515V134.435C174.079 136.515 172.389 138.205 170.309 138.205Z" fill="#197BDD"/>
<path opacity="0.2" d="M149.559 129.745V128.225C149.559 127.345 150.279 126.625 151.159 126.625H165.609C166.489 126.625 167.209 127.345 167.209 128.225V129.745C167.209 130.625 166.489 131.345 165.609 131.345H151.159C150.279 131.345 149.559 130.625 149.559 129.745Z" fill="white"/>
<path d="M155.709 167.375H111.109C109.039 167.375 107.339 165.675 107.339 163.605V152.685C107.339 150.615 109.039 148.915 111.109 148.915H155.709C157.779 148.915 159.479 150.615 159.479 152.685V163.605C159.479 165.675 157.779 167.375 155.709 167.375Z" fill="#197BDD"/>
<path opacity="0.2" d="M134.959 158.905V157.385C134.959 156.505 135.679 155.785 136.559 155.785H151.009C151.889 155.785 152.609 156.505 152.609 157.385V158.905C152.609 159.785 151.889 160.505 151.009 160.505H136.559C135.679 160.505 134.959 159.785 134.959 158.905Z" fill="white"/>
<path d="M170.309 196.535H125.709C123.639 196.535 121.939 194.835 121.939 192.765V181.845C121.939 179.775 123.639 178.075 125.709 178.075H170.309C172.379 178.075 174.079 179.775 174.079 181.845V192.765C174.079 194.835 172.389 196.535 170.309 196.535Z" fill="#197BDD"/>
<path opacity="0.2" d="M149.559 188.065V186.545C149.559 185.665 150.279 184.945 151.159 184.945H165.609C166.489 184.945 167.209 185.665 167.209 186.545V188.065C167.209 188.945 166.489 189.665 165.609 189.665H151.159C150.279 189.665 149.559 188.945 149.559 188.065Z" fill="white"/>
<path d="M170.309 225.695H125.709C123.639 225.695 121.939 223.995 121.939 221.925V211.005C121.939 208.935 123.639 207.235 125.709 207.235H170.309C172.379 207.235 174.079 208.935 174.079 211.005V221.925C174.079 223.995 172.389 225.695 170.309 225.695Z" fill="#197BDD"/>
<path opacity="0.2" d="M149.559 217.225V215.705C149.559 214.825 150.279 214.105 151.159 214.105H165.609C166.489 214.105 167.209 214.825 167.209 215.705V217.225C167.209 218.105 166.489 218.825 165.609 218.825H151.159C150.279 218.825 149.559 218.105 149.559 217.225Z" fill="white"/>
<path d="M170.309 254.855H125.709C123.639 254.855 121.939 253.155 121.939 251.085V240.165C121.939 238.095 123.639 236.395 125.709 236.395H170.309C172.379 236.395 174.079 238.095 174.079 240.165V251.085C174.079 253.155 172.389 254.855 170.309 254.855Z" fill="#197BDD"/>
<path opacity="0.2" d="M149.559 246.385V244.865C149.559 243.985 150.279 243.265 151.159 243.265H165.609C166.489 243.265 167.209 243.985 167.209 244.865V246.385C167.209 247.265 166.489 247.985 165.609 247.985H151.159C150.279 247.985 149.559 247.265 149.559 246.385Z" fill="white"/>
<path d="M170.309 284.015H125.709C123.639 284.015 121.939 282.315 121.939 280.245V269.325C121.939 267.255 123.639 265.555 125.709 265.555H170.309C172.379 265.555 174.079 267.255 174.079 269.325V280.245C174.079 282.315 172.389 284.015 170.309 284.015Z" fill="#197BDD"/>
<path opacity="0.2" d="M149.559 275.545V274.025C149.559 273.145 150.279 272.425 151.159 272.425H165.609C166.489 272.425 167.209 273.145 167.209 274.025V275.545C167.209 276.425 166.489 277.145 165.609 277.145H151.159C150.279 277.145 149.559 276.425 149.559 275.545Z" fill="white"/>
<path d="M170.309 313.175H125.709C123.639 313.175 121.939 311.475 121.939 309.405V298.485C121.939 296.415 123.639 294.715 125.709 294.715H170.309C172.379 294.715 174.079 296.415 174.079 298.485V309.405C174.079 311.475 172.389 313.175 170.309 313.175Z" fill="#197BDD"/>
<path opacity="0.2" d="M149.559 304.705V303.185C149.559 302.305 150.279 301.585 151.159 301.585H165.609C166.489 301.585 167.209 302.305 167.209 303.185V304.705C167.209 305.585 166.489 306.305 165.609 306.305H151.159C150.279 306.305 149.559 305.595 149.559 304.705Z" fill="white"/>
<path d="M112.879 102.805C114.525 102.805 115.859 101.471 115.859 99.825C115.859 98.1792 114.525 96.845 112.879 96.845C111.233 96.845 109.899 98.1792 109.899 99.825C109.899 101.471 111.233 102.805 112.879 102.805Z" fill="#197BDD"/>
<path d="M104.359 102.805C106.005 102.805 107.339 101.471 107.339 99.825C107.339 98.1792 106.005 96.845 104.359 96.845C102.713 96.845 101.379 98.1792 101.379 99.825C101.379 101.471 102.713 102.805 104.359 102.805Z" fill="#197BDD"/>
<path d="M95.8489 102.805C97.4947 102.805 98.8289 101.471 98.8289 99.825C98.8289 98.1792 97.4947 96.845 95.8489 96.845C94.2031 96.845 92.8689 98.1792 92.8689 99.825C92.8689 101.471 94.2031 102.805 95.8489 102.805Z" fill="#64B9FF"/>
<path d="M90.3089 99.825C90.3089 101.475 88.9789 102.805 87.3289 102.805C85.6789 102.805 84.3489 101.475 84.3489 99.825C84.3489 98.175 85.6789 96.845 87.3289 96.845C88.9689 96.845 90.3089 98.175 90.3089 99.825Z" fill="#197BDD"/>
<path d="M112.879 131.965C114.525 131.965 115.859 130.631 115.859 128.985C115.859 127.339 114.525 126.005 112.879 126.005C111.233 126.005 109.899 127.339 109.899 128.985C109.899 130.631 111.233 131.965 112.879 131.965Z" fill="#197BDD"/>
<path d="M104.359 131.965C106.005 131.965 107.339 130.631 107.339 128.985C107.339 127.339 106.005 126.005 104.359 126.005C102.713 126.005 101.379 127.339 101.379 128.985C101.379 130.631 102.713 131.965 104.359 131.965Z" fill="#197BDD"/>
<path d="M95.8489 131.965C97.4947 131.965 98.8289 130.631 98.8289 128.985C98.8289 127.339 97.4947 126.005 95.8489 126.005C94.2031 126.005 92.8689 127.339 92.8689 128.985C92.8689 130.631 94.2031 131.965 95.8489 131.965Z" fill="#197BDD"/>
<path d="M90.3089 128.985C90.3089 130.635 88.9789 131.965 87.3289 131.965C85.6789 131.965 84.3489 130.635 84.3489 128.985C84.3489 127.335 85.6789 126.005 87.3289 126.005C88.9689 126.005 90.3089 127.335 90.3089 128.985Z" fill="#64B9FF"/>
<path d="M98.279 161.125C99.9248 161.125 101.259 159.791 101.259 158.145C101.259 156.499 99.9248 155.165 98.279 155.165C96.6331 155.165 95.299 156.499 95.299 158.145C95.299 159.791 96.6331 161.125 98.279 161.125Z" fill="#64B9FF"/>
<path d="M89.7589 161.125C91.4047 161.125 92.7389 159.791 92.7389 158.145C92.7389 156.499 91.4047 155.165 89.7589 155.165C88.1131 155.165 86.7789 156.499 86.7789 158.145C86.7789 159.791 88.1131 161.125 89.7589 161.125Z" fill="#197BDD"/>
<path d="M81.2389 161.125C82.8847 161.125 84.2189 159.791 84.2189 158.145C84.2189 156.499 82.8847 155.165 81.2389 155.165C79.5931 155.165 78.2589 156.499 78.2589 158.145C78.2589 159.791 79.5931 161.125 81.2389 161.125Z" fill="#64B9FF"/>
<path d="M72.7289 161.125C74.3747 161.125 75.7089 159.791 75.7089 158.145C75.7089 156.499 74.3747 155.165 72.7289 155.165C71.0831 155.165 69.7489 156.499 69.7489 158.145C69.7489 159.791 71.0831 161.125 72.7289 161.125Z" fill="#197BDD"/>
<path d="M112.879 190.285C114.525 190.285 115.859 188.951 115.859 187.305C115.859 185.659 114.525 184.325 112.879 184.325C111.233 184.325 109.899 185.659 109.899 187.305C109.899 188.951 111.233 190.285 112.879 190.285Z" fill="#64B9FF"/>
<path d="M104.359 190.285C106.005 190.285 107.339 188.951 107.339 187.305C107.339 185.659 106.005 184.325 104.359 184.325C102.713 184.325 101.379 185.659 101.379 187.305C101.379 188.951 102.713 190.285 104.359 190.285Z" fill="#64B9FF"/>
<path d="M95.8489 190.285C97.4947 190.285 98.8289 188.951 98.8289 187.305C98.8289 185.659 97.4947 184.325 95.8489 184.325C94.2031 184.325 92.8689 185.659 92.8689 187.305C92.8689 188.951 94.2031 190.285 95.8489 190.285Z" fill="#197BDD"/>
<path d="M90.3089 187.305C90.3089 188.955 88.9789 190.285 87.3289 190.285C85.6789 190.285 84.3489 188.955 84.3489 187.305C84.3489 185.655 85.6789 184.325 87.3289 184.325C88.9689 184.325 90.3089 185.655 90.3089 187.305Z" fill="#197BDD"/>
<path d="M112.879 219.445C114.525 219.445 115.859 218.111 115.859 216.465C115.859 214.819 114.525 213.485 112.879 213.485C111.233 213.485 109.899 214.819 109.899 216.465C109.899 218.111 111.233 219.445 112.879 219.445Z" fill="#197BDD"/>
<path d="M104.359 219.445C106.005 219.445 107.339 218.111 107.339 216.465C107.339 214.819 106.005 213.485 104.359 213.485C102.713 213.485 101.379 214.819 101.379 216.465C101.379 218.111 102.713 219.445 104.359 219.445Z" fill="#64B9FF"/>
<path d="M95.8489 219.445C97.4947 219.445 98.8289 218.111 98.8289 216.465C98.8289 214.819 97.4947 213.485 95.8489 213.485C94.2031 213.485 92.8689 214.819 92.8689 216.465C92.8689 218.111 94.2031 219.445 95.8489 219.445Z" fill="#197BDD"/>
<path d="M90.3089 216.465C90.3089 218.115 88.9789 219.445 87.3289 219.445C85.6789 219.445 84.3489 218.115 84.3489 216.465C84.3489 214.815 85.6789 213.485 87.3289 213.485C88.9689 213.485 90.3089 214.815 90.3089 216.465Z" fill="#197BDD"/>
<path d="M112.879 248.605C114.525 248.605 115.859 247.271 115.859 245.625C115.859 243.979 114.525 242.645 112.879 242.645C111.233 242.645 109.899 243.979 109.899 245.625C109.899 247.271 111.233 248.605 112.879 248.605Z" fill="#197BDD"/>
<path d="M104.359 248.605C106.005 248.605 107.339 247.271 107.339 245.625C107.339 243.979 106.005 242.645 104.359 242.645C102.713 242.645 101.379 243.979 101.379 245.625C101.379 247.271 102.713 248.605 104.359 248.605Z" fill="#197BDD"/>
<path d="M95.8489 248.605C97.4947 248.605 98.8289 247.271 98.8289 245.625C98.8289 243.979 97.4947 242.645 95.8489 242.645C94.2031 242.645 92.8689 243.979 92.8689 245.625C92.8689 247.271 94.2031 248.605 95.8489 248.605Z" fill="#64B9FF"/>
<path d="M90.3089 245.625C90.3089 247.275 88.9789 248.605 87.3289 248.605C85.6789 248.605 84.3489 247.275 84.3489 245.625C84.3489 243.975 85.6789 242.645 87.3289 242.645C88.9689 242.645 90.3089 243.985 90.3089 245.625Z" fill="#64B9FF"/>
<path d="M115.859 274.785C115.859 276.435 114.529 277.765 112.879 277.765C111.229 277.765 109.899 276.435 109.899 274.785C109.899 273.135 111.229 271.805 112.879 271.805C114.529 271.805 115.859 273.145 115.859 274.785Z" fill="#64B9FF"/>
<path d="M107.339 274.785C107.339 276.435 106.009 277.765 104.359 277.765C102.709 277.765 101.379 276.435 101.379 274.785C101.379 273.135 102.709 271.805 104.359 271.805C106.009 271.805 107.339 273.145 107.339 274.785Z" fill="#197BDD"/>
<path d="M98.8289 274.785C98.8289 276.435 97.4989 277.765 95.8489 277.765C94.1989 277.765 92.8689 276.435 92.8689 274.785C92.8689 273.135 94.1989 271.805 95.8489 271.805C97.4989 271.805 98.8289 273.145 98.8289 274.785Z" fill="#197BDD"/>
<path d="M90.3089 274.785C90.3089 276.435 88.9789 277.765 87.3289 277.765C85.6789 277.765 84.3489 276.435 84.3489 274.785C84.3489 273.135 85.6789 271.805 87.3289 271.805C88.9689 271.805 90.3089 273.145 90.3089 274.785Z" fill="#197BDD"/>
<path d="M112.879 306.925C114.525 306.925 115.859 305.591 115.859 303.945C115.859 302.299 114.525 300.965 112.879 300.965C111.233 300.965 109.899 302.299 109.899 303.945C109.899 305.591 111.233 306.925 112.879 306.925Z" fill="#197BDD"/>
<path d="M104.359 306.925C106.005 306.925 107.339 305.591 107.339 303.945C107.339 302.299 106.005 300.965 104.359 300.965C102.713 300.965 101.379 302.299 101.379 303.945C101.379 305.591 102.713 306.925 104.359 306.925Z" fill="#197BDD"/>
<path d="M95.8489 306.925C97.4947 306.925 98.8289 305.591 98.8289 303.945C98.8289 302.299 97.4947 300.965 95.8489 300.965C94.2031 300.965 92.8689 302.299 92.8689 303.945C92.8689 305.591 94.2031 306.925 95.8489 306.925Z" fill="#64B9FF"/>
<path d="M90.3089 303.945C90.3089 305.595 88.9789 306.925 87.3289 306.925C85.6789 306.925 84.3489 305.595 84.3489 303.945C84.3489 302.295 85.6789 300.965 87.3289 300.965C88.9689 300.965 90.3089 302.305 90.3089 303.945Z" fill="#197BDD"/>
<path opacity="0.2" d="M78.3989 99.825C78.3989 103.395 75.5089 106.285 71.9389 106.285C68.3689 106.285 65.4789 103.395 65.4789 99.825C65.4789 96.255 68.3689 93.365 71.9389 93.365C75.5089 93.365 78.3989 96.255 78.3989 99.825Z" fill="white"/>
<path opacity="0.2" d="M78.3989 128.985C78.3989 132.555 75.5089 135.445 71.9389 135.445C68.3689 135.445 65.4789 132.555 65.4789 128.985C65.4789 125.415 68.3689 122.525 71.9389 122.525C75.5089 122.525 78.3989 125.415 78.3989 128.985Z" fill="white"/>
<path opacity="0.2" d="M63.7989 158.145C63.7989 161.715 60.9089 164.605 57.3389 164.605C53.7689 164.605 50.8789 161.715 50.8789 158.145C50.8789 154.575 53.7689 151.685 57.3389 151.685C60.9089 151.685 63.7989 154.575 63.7989 158.145Z" fill="white"/>
<path opacity="0.2" d="M78.3989 187.305C78.3989 190.875 75.5089 193.765 71.9389 193.765C68.3689 193.765 65.4789 190.875 65.4789 187.305C65.4789 183.735 68.3689 180.845 71.9389 180.845C75.5089 180.845 78.3989 183.735 78.3989 187.305Z" fill="white"/>
<path opacity="0.2" d="M78.3989 216.465C78.3989 220.035 75.5089 222.925 71.9389 222.925C68.3689 222.925 65.4789 220.035 65.4789 216.465C65.4789 212.895 68.3689 210.005 71.9389 210.005C75.5089 210.005 78.3989 212.895 78.3989 216.465Z" fill="white"/>
<path opacity="0.2" d="M78.3989 245.625C78.3989 249.195 75.5089 252.085 71.9389 252.085C68.3689 252.085 65.4789 249.195 65.4789 245.625C65.4789 242.055 68.3689 239.165 71.9389 239.165C75.5089 239.165 78.3989 242.055 78.3989 245.625Z" fill="white"/>
<path opacity="0.2" d="M78.3989 274.785C78.3989 278.355 75.5089 281.245 71.9389 281.245C68.3689 281.245 65.4789 278.355 65.4789 274.785C65.4789 271.215 68.3689 268.325 71.9389 268.325C75.5089 268.325 78.3989 271.225 78.3989 274.785Z" fill="white"/>
<path opacity="0.2" d="M78.3989 303.945C78.3989 307.515 75.5089 310.405 71.9389 310.405C68.3689 310.405 65.4789 307.515 65.4789 303.945C65.4789 300.375 68.3689 297.485 71.9389 297.485C75.5089 297.495 78.3989 300.385 78.3989 303.945Z" fill="white"/>
<path d="M167.209 61.505C166.329 56.555 163.249 52.355 159.019 49.955C159.019 49.955 159.019 49.955 159.009 49.955C159.009 49.825 159.029 49.695 159.029 49.565C159.029 40.345 151.549 32.865 142.329 32.865H135.939V34.135C131.679 35.905 128.319 39.395 126.699 43.735C126.159 43.645 125.609 43.585 125.039 43.585C120.839 43.585 117.249 46.185 115.779 49.865C113.659 49.375 111.349 49.395 108.899 50.385C104.439 52.175 101.269 56.425 101.169 61.235C101.029 67.945 106.429 73.435 113.109 73.435H113.119H136.709H158.319C163.269 73.435 167.449 69.515 167.479 64.565C167.479 64.535 167.479 64.495 167.479 64.465C167.479 63.465 167.389 62.475 167.209 61.505Z" fill="#197BDD"/>
<path d="M160.819 61.505C159.939 56.555 156.859 52.355 152.629 49.955H152.619C152.619 49.825 152.639 49.695 152.639 49.565C152.639 40.345 145.159 32.865 135.939 32.865C128.769 32.865 122.669 37.395 120.309 43.745C119.769 43.655 119.219 43.595 118.649 43.595C114.449 43.595 110.859 46.195 109.389 49.875C107.269 49.385 104.959 49.405 102.509 50.395C98.0489 52.185 94.8789 56.435 94.7789 61.245C94.6389 67.955 100.039 73.445 106.719 73.445H106.729H130.319H151.929C156.879 73.445 161.059 69.525 161.089 64.575C161.089 64.545 161.089 64.505 161.089 64.475C161.089 63.465 160.989 62.475 160.819 61.505Z" fill="#4EA4F9"/>
<path d="M137.169 22.355H136.329V24.865H137.169V22.355Z" fill="#0053CC"/>
<path d="M298.029 79.375H297.189V74.385H298.029V79.375ZM298.029 69.385H297.189V64.395H298.029V69.385ZM298.029 59.395H297.189V54.405H298.029V59.395ZM298.029 49.405H297.189V44.415H298.029V49.405ZM298.029 39.415H297.189V34.425H298.029V39.415ZM298.029 29.425H297.189V24.435H298.029V29.425ZM298.029 19.445H297.189V14.455H298.029V19.445ZM137.159 17.365H136.319V13.925C136.319 13.385 136.349 12.855 136.409 12.325L137.239 12.425C137.179 12.915 137.149 13.425 137.149 13.925V17.365H137.159ZM296.469 9.675C295.929 8.14501 295.109 6.755 294.029 5.535L294.659 4.985C295.809 6.285 296.679 7.775 297.259 9.395L296.469 9.675ZM138.709 7.845L137.979 7.445C138.809 5.925 139.909 4.605 141.239 3.495L141.769 4.135C140.519 5.175 139.489 6.425 138.709 7.845ZM290.229 2.595C288.779 1.865 287.229 1.425 285.609 1.285L285.679 0.455004C287.409 0.605004 289.069 1.075 290.609 1.855L290.229 2.595ZM145.989 1.835L145.739 1.035C147.059 0.615004 148.449 0.395004 149.849 0.395004H150.799V1.235H149.849C148.529 1.245 147.229 1.445 145.989 1.835ZM280.649 1.245H275.649V0.405004H280.649V1.245ZM270.659 1.245H265.669V0.405004H270.659V1.245ZM260.669 1.245H255.679V0.405004H260.669V1.245ZM250.689 1.245H245.699V0.405004H250.689V1.245ZM240.699 1.245H235.699V0.405004H240.699V1.245ZM230.709 1.245H225.709V0.405004H230.709V1.245ZM220.719 1.245H215.729V0.405004H220.719V1.245ZM210.729 1.245H205.739V0.405004H210.729V1.245ZM200.739 1.245H195.749V0.405004H200.739V1.245ZM190.749 1.245H185.759V0.405004H190.749V1.245ZM180.759 1.245H175.769V0.405004H180.759V1.245ZM170.769 1.245H165.779V0.405004H170.769V1.245ZM160.779 1.245H155.789V0.405004H160.779V1.245Z" fill="#0053CC"/>
<path d="M298.039 84.395H297.199V86.905H298.039V84.395Z" fill="#0053CC"/>
<path d="M230.859 325.675H238.209L238.999 308.665H231.649L230.859 325.675Z" fill="#FF8B7B"/>
<path d="M238.459 324.825H230.439C230.139 324.825 229.889 325.035 229.829 325.325L228.609 331.855C228.479 332.535 229.019 333.175 229.709 333.165C232.599 333.115 236.779 332.945 240.419 332.945C244.669 332.945 245.269 333.175 250.259 333.175C253.279 333.175 253.999 330.125 252.729 329.845C246.939 328.585 245.319 328.455 240.249 325.395C239.699 325.065 239.099 324.825 238.459 324.825Z" fill="#14365B"/>
<path d="M238.989 308.665L238.589 317.435H231.239L231.639 308.665H238.989Z" fill="#EA7063"/>
<path d="M280.099 81.155C279.959 83.465 279.799 85.995 279.729 88.415C279.669 90.865 279.599 93.295 279.639 95.715C279.659 98.125 279.759 100.515 279.959 102.815C280.149 105.115 280.509 107.355 281.019 109.245C281.269 110.195 281.589 111.005 281.889 111.565C281.919 111.675 282.129 111.975 282.269 112.205L282.719 112.935C283.009 113.425 283.359 113.905 283.679 114.395C284.989 116.345 286.449 118.285 287.939 120.235C290.959 124.085 294.209 127.985 297.419 131.785L293.589 136.265C289.119 133.365 285.029 130.155 281.119 126.535C279.169 124.725 277.289 122.805 275.479 120.725C275.029 120.195 274.569 119.695 274.149 119.125L273.499 118.285C273.279 117.985 273.089 117.785 272.809 117.335C271.749 115.735 271.059 114.185 270.529 112.705C269.469 109.745 268.939 106.935 268.529 104.185C268.119 101.425 267.939 98.725 267.799 96.035C267.709 93.355 267.669 90.685 267.769 88.035C267.869 85.365 267.979 82.795 268.279 80.025L280.099 81.155Z" fill="#FF8B7B"/>
<path d="M282.699 96.215L279.579 97.465L274.329 99.555L265.009 103.285C265.009 103.285 260.759 81.175 263.049 74.455C265.569 67.075 274.469 67.245 279.279 75.655C283.959 83.855 282.699 96.215 282.699 96.215Z" fill="#9FC6FF"/>
<path d="M279.119 97.645L274.329 99.555C273.529 96.085 272.789 90.275 275.159 85.925C278.389 88.625 278.899 94.105 279.119 97.645Z" fill="#77B3FC"/>
<path d="M274.359 128.365H234.149C233.859 124.755 234.769 114.975 234.169 101.655C234.029 98.585 233.809 95.335 233.479 91.925C232.799 84.835 231.619 77.075 229.659 68.925C229.659 68.925 236.509 67.535 243.059 67.225C248.189 66.975 255.619 66.815 260.159 67.225C266.129 67.765 271.819 69.365 271.819 69.365C271.819 69.365 281.269 86.095 274.359 128.365Z" fill="#9FC6FF"/>
<path d="M234.169 101.655C234.029 98.585 233.809 95.335 233.479 91.925C234.779 91.115 236.479 91.065 236.829 95.825C237.149 100.225 235.609 101.445 234.169 101.655Z" fill="#77B3FC"/>
<path d="M308.829 137.135L303.029 140.755L295.859 139.225L301.569 132.145L308.829 137.135Z" fill="#FF8B7B"/>
<path d="M294.869 131.075L301.559 132.155L295.859 139.225C295.859 139.225 292.289 138.865 291.309 134.025L294.869 131.075Z" fill="#FF8B7B"/>
<path d="M244.069 47.975C245.349 53.475 246.779 63.555 243.069 67.225C243.069 67.225 244.929 70.915 255.149 70.915C264.489 70.915 260.159 67.225 260.159 67.225C253.969 65.765 253.969 61.215 254.879 56.935L244.069 47.975Z" fill="#FF8B7B"/>
<path d="M248.469 51.625L254.869 56.925C254.649 57.935 254.489 58.965 254.449 59.955C252.499 61.855 248.779 57.045 248.449 54.595C248.289 53.375 248.289 52.195 248.469 51.625Z" fill="#EA7063"/>
<path d="M265.899 33.985C268.459 37.165 265.469 47.185 260.169 46.935C254.869 46.675 261.039 27.955 265.899 33.985Z" fill="#0F264C"/>
<path d="M245.149 38.835C244.579 46.245 243.859 50.545 247.059 54.965C251.869 61.605 261.449 59.845 264.239 52.825C266.749 46.515 267.269 35.445 260.449 31.265C253.739 27.145 245.729 31.425 245.149 38.835Z" fill="#FF8B7B"/>
<path d="M242.479 29.505L250.489 32.335C246.979 37.035 252.069 48.085 245.879 46.025C243.029 45.075 233.769 34.845 242.479 29.505Z" fill="#0F264C"/>
<path d="M246.359 31.425C249.379 33.645 261.669 36.285 268.699 32.365C266.879 31.975 264.509 30.785 264.509 30.785C264.509 30.785 269.769 30.535 272.099 26.645C267.089 27.405 263.709 25.975 262.439 25.425C264.729 24.925 267.149 22.565 267.809 20.865C258.099 20.985 237.189 22.945 240.849 29.785C244.509 36.615 246.359 31.425 246.359 31.425Z" fill="#0F264C"/>
<path d="M242.159 30.525C242.159 30.525 239.739 29.415 238.209 27.695C237.749 28.835 237.749 31.955 242.159 30.525Z" fill="#0F264C"/>
<path d="M240.689 46.335C241.499 48.205 243.089 49.555 244.639 50.185C246.969 51.135 248.339 49.145 247.869 46.825C247.439 44.735 245.709 41.725 243.279 41.765C240.889 41.805 239.759 44.195 240.689 46.335Z" fill="#FF8B7B"/>
<path d="M253.409 325.675H260.749L262.269 308.665H254.929L253.409 325.675Z" fill="#FF8B7B"/>
<path d="M261.089 324.825H253.069C252.769 324.825 252.519 325.035 252.459 325.325L251.239 331.855C251.109 332.535 251.649 333.175 252.339 333.165C255.229 333.115 259.409 332.945 263.049 332.945C267.299 332.945 270.979 333.175 275.969 333.175C278.989 333.175 279.709 330.125 278.439 329.845C272.649 328.585 267.949 328.455 262.869 325.395C262.329 325.065 261.719 324.825 261.089 324.825Z" fill="#14365B"/>
<path d="M262.269 308.665L261.489 317.435H254.139L254.919 308.665H262.269Z" fill="#EA7063"/>
<path d="M264.159 325.955C264.729 326.045 265.269 326.035 265.639 325.805C265.939 325.625 266.099 325.325 266.119 324.935C266.139 324.635 265.999 324.475 265.879 324.395C265.109 323.845 262.519 324.935 262.219 325.065C262.159 325.095 262.109 325.155 262.119 325.235C262.119 325.305 262.169 325.375 262.239 325.395C262.739 325.585 263.469 325.845 264.159 325.955ZM265.459 324.585C265.549 324.595 265.629 324.625 265.679 324.665C265.719 324.695 265.769 324.755 265.769 324.885C265.749 325.165 265.649 325.365 265.449 325.485C264.999 325.765 264.019 325.655 262.779 325.205C263.679 324.855 264.879 324.495 265.459 324.585Z" fill="#407BFF"/>
<path d="M262.279 325.385C262.309 325.385 262.339 325.385 262.369 325.375C263.189 325.075 264.889 323.685 264.829 322.835C264.819 322.685 264.739 322.405 264.319 322.285C264.049 322.205 263.789 322.245 263.539 322.395C262.589 322.965 262.149 325.075 262.129 325.165C262.119 325.225 262.139 325.295 262.189 325.335C262.209 325.365 262.239 325.385 262.279 325.385ZM264.149 322.615C264.179 322.615 264.199 322.625 264.229 322.635C264.459 322.695 264.459 322.805 264.469 322.855C264.499 323.355 263.399 324.435 262.559 324.895C262.719 324.285 263.109 323.075 263.729 322.705C263.869 322.625 264.009 322.595 264.149 322.615Z" fill="#407BFF"/>
<path d="M251.369 315.335H263.319C263.319 315.335 281.739 245.015 281.379 221.165C281.039 198.225 274.359 128.365 274.359 128.365H247.929C247.929 128.365 249.989 143.905 252.329 163.075C254.419 179.995 256.719 199.765 258.029 214.165C258.409 218.445 258.719 222.245 258.899 225.365C260.269 248.785 251.369 315.335 251.369 315.335Z" fill="#0053CC"/>
<path d="M252.319 163.075C254.409 179.995 256.709 199.765 258.019 214.165C260.809 201.595 267.629 165.055 257.399 146.575C254.849 150.225 253.289 156.535 252.319 163.075Z" fill="#004DAA"/>
<path d="M260.089 128.365C260.089 128.365 259.099 195.735 255.189 217.255C250.909 240.825 242.389 315.335 242.389 315.335H228.619C228.619 315.335 230.629 242.725 232.719 219.395C234.989 194.065 234.159 128.365 234.159 128.365H260.089Z" fill="#0053CC"/>
<path d="M228.099 315.625H242.929L244.019 310.035L227.589 309.575L228.099 315.625Z" fill="#0F264C"/>
<path d="M250.689 315.625H265.519L266.619 310.035L250.239 310.315L250.689 315.625Z" fill="#0F264C"/>
<path d="M233.869 307.195C233.859 307.195 233.859 307.195 233.849 307.195C233.779 307.185 233.729 307.115 233.739 307.045C233.829 306.345 234.859 241.195 236.729 220.235C238.769 197.485 237.489 137.125 237.529 136.615C237.539 136.545 237.599 136.495 237.669 136.505C237.739 136.515 237.789 136.575 237.789 136.645C237.749 137.155 239.019 197.515 236.989 220.265C235.109 241.235 234.089 306.395 233.999 307.085C233.989 307.155 233.939 307.195 233.869 307.195Z" fill="#9FC6FF"/>
<path d="M256.069 42.905C255.989 43.505 256.239 44.045 256.629 44.115C257.019 44.185 257.409 43.755 257.489 43.155C257.569 42.555 257.319 42.015 256.929 41.945C256.539 41.885 256.149 42.315 256.069 42.905Z" fill="#0F264C"/>
<path d="M262.999 43.745C262.919 44.345 263.169 44.885 263.559 44.955C263.949 45.025 264.339 44.595 264.419 43.995C264.499 43.395 264.249 42.855 263.859 42.785C263.469 42.715 263.079 43.145 262.999 43.745Z" fill="#0F264C"/>
<path d="M260.649 43.945C260.649 43.945 261.529 47.625 262.809 49.555C261.609 50.355 259.859 49.585 259.859 49.585L260.649 43.945Z" fill="#FF5652"/>
<path d="M258.609 51.985C258.709 51.995 258.799 51.925 258.799 51.835C258.809 51.735 258.739 51.645 258.639 51.635C255.989 51.285 254.929 49.275 254.919 49.255C254.869 49.165 254.769 49.125 254.679 49.175C254.589 49.215 254.559 49.325 254.599 49.415C254.659 49.495 255.769 51.605 258.609 51.985Z" fill="#0F264C"/>
<path d="M254.239 38.595C254.349 38.625 254.459 38.605 254.549 38.535C255.769 37.565 257.029 37.975 257.039 37.985C257.209 38.055 257.429 37.955 257.489 37.765C257.549 37.575 257.439 37.375 257.249 37.315C257.179 37.295 255.609 36.775 254.089 37.975C253.939 38.095 253.919 38.315 254.039 38.475C254.099 38.535 254.169 38.575 254.239 38.595Z" fill="#0F264C"/>
<path d="M235.569 67.555L237.459 67.385C237.649 67.365 237.829 67.495 237.869 67.685C244.169 96.055 242.289 126.165 242.289 126.165H240.199C240.789 94.915 235.969 71.255 235.259 67.965C235.209 67.775 235.359 67.575 235.569 67.555Z" fill="#318FFF"/>
<path d="M240.589 126.855H242.039C242.409 126.855 242.709 126.555 242.689 126.175C242.679 125.805 242.359 125.495 241.989 125.495H240.539C240.169 125.495 239.869 125.795 239.889 126.175C239.909 126.555 240.219 126.855 240.589 126.855Z" fill="#0F264C"/>
<path d="M242.269 128.615L242.199 126.715C242.179 126.225 241.769 125.835 241.279 125.835C240.789 125.835 240.409 126.235 240.429 126.715L240.499 128.615C240.519 129.105 240.929 129.495 241.419 129.495C241.899 129.505 242.279 129.105 242.269 128.615Z" fill="#0F264C"/>
<path d="M266.129 40.145C266.179 40.155 266.239 40.155 266.289 40.135C266.469 40.075 266.579 39.875 266.519 39.685C265.919 37.775 264.349 37.275 264.289 37.255C264.109 37.195 263.909 37.305 263.859 37.495C263.809 37.685 263.919 37.885 264.109 37.945C264.159 37.965 265.379 38.365 265.859 39.885C265.889 40.025 265.999 40.125 266.129 40.145Z" fill="#0F264C"/>
<path d="M234.179 80.795C233.029 85.505 231.879 90.405 230.849 95.175C230.359 97.565 229.879 99.945 229.499 102.285C229.149 104.605 228.839 106.935 228.869 108.835C228.929 112.685 230.329 116.495 232.939 119.975C234.229 121.705 235.789 123.355 237.519 124.875C238.379 125.635 239.279 126.385 240.219 127.075C240.689 127.415 241.169 127.755 241.649 128.075C242.109 128.395 242.659 128.745 243.029 128.985L240.849 134.455C240.049 134.215 239.449 134.005 238.779 133.755C238.129 133.505 237.489 133.235 236.859 132.945C235.589 132.375 234.349 131.745 233.139 131.045C230.729 129.615 228.419 127.915 226.339 125.855C224.259 123.795 222.399 121.375 220.979 118.615C219.579 115.855 218.619 112.775 218.279 109.635C217.989 106.455 218.079 103.705 218.309 100.975C218.549 98.275 218.879 95.635 219.309 93.035C220.159 87.815 221.269 82.805 222.709 77.695L234.179 80.795Z" fill="#FF8B7B"/>
<path d="M229.659 68.915C221.699 70.345 217.209 91.585 217.209 91.585L236.869 98.625C236.869 98.625 238.369 91.665 236.889 82.455C235.449 73.405 237.199 67.565 229.659 68.915Z" fill="#9FC6FF"/>
<path d="M267.419 67.945L269.309 68.305C269.469 68.335 269.589 68.465 269.619 68.615C274.619 96.995 271.299 126.185 271.299 126.185H269.209C271.229 95.295 267.619 72.025 266.999 68.355C266.959 68.105 267.169 67.895 267.419 67.945Z" fill="#318FFF"/>
<path d="M269.579 126.855H271.029C271.399 126.855 271.709 126.555 271.709 126.175C271.709 125.805 271.409 125.495 271.039 125.495H269.589C269.219 125.495 268.909 125.795 268.909 126.175C268.899 126.555 269.199 126.855 269.579 126.855Z" fill="#0F264C"/>
<path d="M271.169 128.615L271.189 126.715C271.199 126.225 270.799 125.835 270.309 125.835C269.819 125.835 269.419 126.235 269.419 126.715L269.399 128.615C269.389 129.105 269.789 129.495 270.279 129.495C270.759 129.505 271.159 129.105 271.169 128.615Z" fill="#0F264C"/>
<path d="M241.529 325.955C242.099 326.045 242.639 326.035 243.009 325.805C243.309 325.625 243.469 325.325 243.489 324.935C243.509 324.635 243.369 324.475 243.249 324.395C242.479 323.845 239.889 324.935 239.589 325.065C239.529 325.095 239.479 325.155 239.489 325.235C239.489 325.305 239.539 325.375 239.609 325.395C240.119 325.585 240.839 325.845 241.529 325.955ZM242.829 324.585C242.919 324.595 242.999 324.625 243.049 324.665C243.089 324.695 243.139 324.755 243.139 324.885C243.119 325.165 243.019 325.365 242.819 325.485C242.369 325.765 241.389 325.655 240.149 325.205C241.059 324.855 242.259 324.495 242.829 324.585Z" fill="#407BFF"/>
<path d="M239.649 325.385C239.679 325.385 239.709 325.385 239.739 325.375C240.559 325.075 242.259 323.685 242.199 322.835C242.189 322.685 242.109 322.405 241.689 322.285C241.419 322.205 241.159 322.245 240.909 322.395C239.959 322.965 239.519 325.075 239.499 325.165C239.489 325.225 239.509 325.295 239.559 325.335C239.589 325.365 239.619 325.385 239.649 325.385ZM241.529 322.615C241.559 322.615 241.579 322.625 241.609 322.635C241.839 322.695 241.839 322.805 241.849 322.855C241.879 323.355 240.779 324.435 239.939 324.895C240.099 324.285 240.489 323.075 241.109 322.705C241.239 322.625 241.379 322.595 241.529 322.615Z" fill="#407BFF"/>
<path d="M237.109 132.995L239.409 128.815L245.719 129.035L250.629 131.075L253.969 135.995L245.389 135.475C245.389 135.465 240.129 136.965 237.109 132.995Z" fill="#FF8B7B"/>
<path d="M254.529 70.905L253.019 69.835L250.009 72.845L254.529 70.905Z" fill="#77B3FC"/>
<path d="M253.019 69.835C253.019 69.835 250.569 73.445 250.159 76.055C247.029 74.775 241.089 71.575 240.149 67.055C241.339 66.815 243.279 65.555 243.279 65.555C243.279 65.555 246.489 68.195 253.019 69.835Z" fill="#318FFF"/>
<path d="M254.529 70.905L255.089 69.675L259.239 72.845L254.529 70.905Z" fill="#77B3FC"/>
<path d="M255.089 69.675C255.089 69.675 257.779 72.015 258.269 75.425C261.309 74.145 262.369 69.975 261.459 67.195C259.749 66.395 257.759 65.995 257.759 65.995C257.759 65.995 258.179 68.695 255.089 69.675Z" fill="#318FFF"/>
<path d="M327.099 99.465L264.139 97.245L255.029 134.055L317.999 136.275L327.099 99.465Z" fill="#318FFF"/>
<path d="M329.039 99.535L266.079 97.305L256.969 134.125L319.939 136.345L329.039 99.535Z" fill="#0F264C"/>
<path d="M319.939 136.345L319.679 138.395L256.709 136.165L256.969 134.125L319.939 136.345Z" fill="#0F264C"/>
<path d="M256.969 134.125L256.709 136.165L231.999 135.295L232.249 133.245L256.969 134.125Z" fill="#318FFF"/>
</svg>
